<svg width="75" height="75" viewBox="0 0 75 75" fill="none" xmlns="http://www.w3.org/2000/svg">
<path d="M73.8281 25.2375C73.8281 22.3066 71.4434 19.9219 68.5125 19.9219C67.0934 19.9219 65.7574 20.475 64.7543 21.4793L61.2809 24.9527L57.4219 28.8117V17.4844C61.391 16.9125 64.4531 13.4988 64.4531 9.375C64.4531 4.85156 60.7734 1.17188 56.25 1.17188H9.375C4.85156 1.17188 1.17188 4.85156 1.17188 9.375V67.9688C1.17188 68.6156 1.69688 69.1406 2.34375 69.1406H8.20312V72.6562C8.20312 73.3031 8.72813 73.8281 9.375 73.8281H56.25C56.8969 73.8281 57.4219 73.3031 57.4219 72.6562V43.8445L68.7973 32.4691L70.0008 31.2656C69.3938 34.2891 67.9137 37.0687 65.6848 39.2988L60.1102 44.8734L61.7672 46.5305L67.3418 40.9559C70.6676 37.6301 72.5273 33.2379 72.6363 28.5516C73.3945 27.6117 73.8281 26.4633 73.8281 25.2375ZM66.4113 23.1363C66.9727 22.575 67.7191 22.2656 68.5125 22.2656C70.1508 22.2656 71.4844 23.5992 71.4844 25.2375C71.4844 26.0309 71.175 26.7773 70.6137 27.3387L67.9688 29.9836L63.7664 25.7812L66.4113 23.1363ZM62.1094 27.4383L63.382 28.7109L48.6328 43.4602L47.3602 42.1875L62.1094 27.4383ZM34.2387 58.3629L36.6492 53.5406L40.2094 57.1008L35.3871 59.5113L34.2387 58.3629ZM37.9852 51.5625L45.7031 43.8445L49.9055 48.0469L42.1875 55.7648L37.9852 51.5625ZM56.25 3.51562C59.4809 3.51562 62.1094 6.14414 62.1094 9.375C62.1094 12.6059 59.4809 15.2344 56.25 15.2344H15.1055C16.6289 13.7437 17.5781 11.6695 17.5781 9.375C17.5781 7.08047 16.6289 5.00625 15.1055 3.51562H56.25ZM10.5469 15.116V11.7188C10.5469 11.073 11.073 10.5469 11.7188 10.5469H15.116C14.6484 12.8391 12.8391 14.6484 10.5469 15.116ZM3.51562 66.7969V9.375C3.51562 6.14414 6.14414 3.51562 9.375 3.51562C12.2039 3.51562 14.5711 5.53242 15.116 8.20312H11.7188C9.78047 8.20312 8.20312 9.78047 8.20312 11.7188V66.7969H3.51562ZM55.0781 71.4844H10.5469V17.5781H55.0781V31.1555L49.9055 36.3281H15.2344V38.6719H47.5617L45.218 41.0156H15.2344V43.3594H42.8742L35.4996 50.734C35.4082 50.8254 35.3484 50.9344 35.2934 51.0445L35.2805 51.0375L31.7648 58.0687C31.5398 58.5199 31.6277 59.0648 31.9852 59.4211L32.3273 59.7656L29.6402 62.4527L31.2973 64.1098L33.9844 61.4227L34.3277 61.766C34.5527 61.991 34.8527 62.1094 35.1562 62.1094C35.3332 62.1094 35.5137 62.0684 35.6801 61.9863L42.7113 58.4707L42.7043 58.4578C42.8145 58.4027 42.9234 58.343 43.0148 58.2516L52.3898 48.8766L55.0781 46.1883V71.4844ZM51.5625 46.3898L50.2898 45.1172L65.0391 30.368L66.3117 31.6406L51.5625 46.3898Z" fill="#0585E8"/>
<path d="M15.2344 22.2656H50.3906V24.6094H15.2344V22.2656Z" fill="#0585E8"/>
<path d="M15.2344 26.9531H50.3906V29.2969H15.2344V26.9531Z" fill="#0585E8"/>
<path d="M15.2344 31.6406H50.3906V33.9844H15.2344V31.6406Z" fill="#0585E8"/>
<path d="M15.2344 59.7656H28.125V62.1094H15.2344V59.7656Z" fill="#0585E8"/>
<path d="M15.2344 64.4531H50.3906V66.7969H15.2344V64.4531Z" fill="#0585E8"/>
</svg>
