<svg width="75" height="75" viewBox="0 0 75 75" fill="none" xmlns="http://www.w3.org/2000/svg">
<path d="M73.65 53.2852L62.8055 35.9344C64.4625 35.2102 65.625 33.5613 65.625 31.6406C65.625 30.7828 65.3766 29.9895 64.9734 29.2969H68.4645C71.4211 29.2969 73.8281 26.8898 73.8281 23.932C73.8281 21.7254 73 22.2656 71 22.2656H69.2188H67.5H66.5C66.5 22.2656 65.4101 22.2656 65.625 22.2656C65.625 22.2656 64.6324 22.2656 63.9 22.2656H41.0156V19.9219H42.1875C42.8344 19.9219 43.3594 19.398 43.3594 18.75V14.0625C43.3594 13.4145 42.8344 12.8906 42.1875 12.8906H40.759L39.9902 9.81563C41.3051 8.98477 42.1875 7.52695 42.1875 5.85938C42.1875 3.27422 40.0852 1.17188 37.5 1.17188C34.9148 1.17188 32.8125 3.27422 32.8125 5.85938C32.8125 7.52695 33.6949 8.98477 35.0098 9.81563L34.241 12.8906H32.8125C32.1656 12.8906 31.6406 13.4145 31.6406 14.0625V18.75C31.6406 19.398 32.1656 19.9219 32.8125 19.9219H33.9844V22.2656H11.1C10.3676 22.2656 9.5 22.2656 8.5 22.2656C7.76836 22.2656 6.78718 22.2656 6.78718 22.2656H5H3.84615H2.50003C1.17186 22.2656 1.17188 23.932 1.17188 23.932C1.17188 26.8898 3.57891 29.2969 6.53672 29.2969H10.0277C9.62344 29.9895 9.375 30.7828 9.375 31.6406C9.375 33.5613 10.5375 35.2102 12.1934 35.9344L1.35 53.2852L1.36758 53.2969C1.25391 53.4762 1.17188 53.6777 1.17188 53.9062C1.17188 58.5059 6.83437 62.1094 14.0625 62.1094C21.2906 62.1094 26.9531 58.5059 26.9531 53.9062C26.9531 53.6777 26.8711 53.4762 26.7574 53.2957L26.775 53.284L15.9305 35.9332C17.5875 35.2102 18.75 33.5613 18.75 31.6406C18.75 30.7828 18.5016 29.9895 18.0984 29.2969H33.9844V56.6977C33.2637 57.5215 32.8125 58.5867 32.8125 59.7656C32.8125 60.9434 33.2637 62.0086 33.9832 62.8324C33.9797 64.5551 32.7457 66.0094 31.0465 66.293L22.4906 67.7191C21.0023 67.9676 19.9219 69.2438 19.9219 70.7531C19.9219 72.4488 21.3012 73.8281 22.9969 73.8281H52.0031C53.6988 73.8281 55.0781 72.4488 55.0781 70.7531C55.0781 69.2438 53.9977 67.9676 52.5094 67.7191L43.9535 66.293C42.2531 66.0094 41.0203 64.5551 41.0168 62.8324C41.7363 62.0086 42.1875 60.9434 42.1875 59.7656C42.1875 58.5879 41.7363 57.5227 41.0156 56.6977V29.2969H56.9016C56.4984 29.9895 56.25 30.7828 56.25 31.6406C56.25 33.5613 57.4125 35.2102 59.0684 35.9344L48.225 53.2852L48.2426 53.2969C48.1289 53.4762 48.0469 53.6777 48.0469 53.9062C48.0469 58.5059 53.7094 62.1094 60.9375 62.1094C68.1656 62.1094 73.8281 58.5059 73.8281 53.9062C73.8281 53.6777 73.7461 53.4762 73.6324 53.2957L73.65 53.2852ZM37.5 3.51562C38.7926 3.51562 39.8438 4.5668 39.8438 5.85938C39.8438 7.15195 38.7926 8.20312 37.5 8.20312C36.2074 8.20312 35.1562 7.15195 35.1562 5.85938C35.1562 4.5668 36.2074 3.51562 37.5 3.51562ZM37.2492 10.5211C37.3336 10.5258 37.4145 10.5469 37.5 10.5469C37.5855 10.5469 37.6664 10.5258 37.7508 10.5211L38.3426 12.8906H36.6574L37.2492 10.5211ZM33.9844 15.2344H41.0156V17.5781H33.9844V15.2344ZM36.3281 19.9219H38.6719V22.2656H36.3281V19.9219ZM4 24.5H5C5.5 24.5 6 24.5 7 24.5C8.5 24.5 9.25195 24.6094 11.1 24.6094H63.9C65.4398 24.6094 65.9356 24.6094 65.9356 24.6094H68H70H71.5C71.5 26.2758 70.1297 26.9531 68.4633 26.9531H6.53672C4.87031 26.9531 4 26.1664 4 24.5ZM14.0625 37.3676L23.666 52.7344H4.45898L14.0625 37.3676ZM14.0625 59.7656C9.06562 59.7656 4.74609 57.716 3.73711 55.0781H24.3867C23.3789 57.716 19.0594 59.7656 14.0625 59.7656ZM16.4062 31.6406C16.4062 32.9332 15.3551 33.9844 14.0625 33.9844C12.7699 33.9844 11.7187 32.9332 11.7187 31.6406C11.7187 30.348 12.7699 29.2969 14.0625 29.2969C15.3551 29.2969 16.4062 30.348 16.4062 31.6406ZM39.8438 59.7656C39.8438 61.0582 38.7926 62.1094 37.5 62.1094C36.2074 62.1094 35.1562 61.0582 35.1562 59.7656C35.1562 58.473 36.2074 57.4219 37.5 57.4219C38.7926 57.4219 39.8438 58.473 39.8438 59.7656ZM43.568 68.6051L52.1227 70.0312C52.4777 70.091 52.7344 70.3934 52.7344 70.7531C52.7344 71.1562 52.4062 71.4844 52.0031 71.4844H22.9969C22.5938 71.4844 22.2656 71.1562 22.2656 70.7531C22.2656 70.3934 22.5223 70.091 22.8762 70.0312L31.432 68.6051C33.7898 68.2125 35.591 66.4582 36.1383 64.2281C36.573 64.3605 37.023 64.4531 37.5 64.4531C37.977 64.4531 38.427 64.3605 38.8605 64.2281C39.4078 66.4582 41.2102 68.2125 43.568 68.6051ZM38.6719 55.2445C38.2945 55.1461 37.9066 55.0781 37.5 55.0781C37.0934 55.0781 36.7055 55.1461 36.3281 55.2445V29.2969H38.6719V55.2445ZM60.9375 29.2969C62.2301 29.2969 63.2812 30.348 63.2812 31.6406C63.2812 32.9332 62.2301 33.9844 60.9375 33.9844C59.6449 33.9844 58.5938 32.9332 58.5938 31.6406C58.5938 30.348 59.6449 29.2969 60.9375 29.2969ZM70.541 52.7344H51.334L60.9375 37.3676L70.541 52.7344ZM60.9375 59.7656C55.9406 59.7656 51.6211 57.716 50.6121 55.0781H71.2617C70.2539 57.716 65.9344 59.7656 60.9375 59.7656Z" fill="#0585E8"/>
</svg>
