<svg width="75" height="75" viewBox="0 0 75 75" fill="none" xmlns="http://www.w3.org/2000/svg">
<path d="M12.8906 73.8281H62.1094C63.6628 73.8263 65.1521 73.2083 66.2505 72.1099C67.349 71.0115 67.9669 69.5222 67.9688 67.9688V42.1875C67.9661 41.2826 67.753 40.3908 67.3462 39.5825C66.9394 38.7743 66.3501 38.0717 65.625 37.5305V10.5469C65.625 9.30367 65.1311 8.11139 64.2521 7.23231C63.373 6.35323 62.1807 5.85938 60.9375 5.85938C60.9375 4.61617 60.4436 3.42389 59.5646 2.54481C58.6855 1.66574 57.4932 1.17188 56.25 1.17188H14.0625C12.8193 1.17188 11.627 1.66574 10.7479 2.54481C9.86886 3.42389 9.375 4.61617 9.375 5.85938V30.4992C8.64985 31.0405 8.06059 31.743 7.65381 32.5513C7.24702 33.3596 7.03389 34.2514 7.03125 35.1562V67.9688C7.03311 69.5222 7.65103 71.0115 8.74948 72.1099C9.84792 73.2083 11.3372 73.8263 12.8906 73.8281ZM63.2812 10.5469V36.4453C62.8956 36.367 62.5029 36.3277 62.1094 36.3281H60.9375V8.20312C61.5591 8.20312 62.1552 8.45006 62.5948 8.88959C63.0343 9.32913 63.2812 9.92527 63.2812 10.5469ZM11.7188 5.85938C11.7188 5.23777 11.9657 4.64163 12.4052 4.20209C12.8448 3.76255 13.4409 3.51562 14.0625 3.51562H56.25C56.8716 3.51562 57.4677 3.76255 57.9073 4.20209C58.3468 4.64163 58.5938 5.23777 58.5938 5.85938V36.3281H48.6328L45.4688 32.1094C45.3596 31.9638 45.218 31.8457 45.0553 31.7643C44.8926 31.683 44.7132 31.6406 44.5312 31.6406H29.1422L27.9281 29.8184C27.8211 29.6579 27.6761 29.5264 27.506 29.4354C27.3359 29.3444 27.146 29.2968 26.9531 29.2969H12.8906C12.4971 29.2965 12.1044 29.3357 11.7188 29.4141V5.85938ZM45.7031 36.3281H32.2676L30.7031 33.9844H43.9453L45.7031 36.3281ZM9.375 35.1562C9.375 34.2238 9.74539 33.3296 10.4047 32.6703C11.064 32.011 11.9582 31.6406 12.8906 31.6406H26.3262L30.6621 38.1504C30.7695 38.3113 30.915 38.4432 31.0858 38.5342C31.2565 38.6252 31.4471 38.6725 31.6406 38.6719H62.1094C63.0418 38.6719 63.936 39.0423 64.5953 39.7016C65.2546 40.3609 65.625 41.2551 65.625 42.1875V67.9688C65.625 68.9012 65.2546 69.7954 64.5953 70.4547C63.936 71.114 63.0418 71.4844 62.1094 71.4844H12.8906C11.9582 71.4844 11.064 71.114 10.4047 70.4547C9.74539 69.7954 9.375 68.9012 9.375 67.9688V35.1562Z" fill="#0585E8"/>
<path d="M15.2344 12.8906H22.2656C22.5764 12.8906 22.8745 12.7672 23.0943 12.5474C23.314 12.3276 23.4375 12.0296 23.4375 11.7188V7.03125C23.4375 6.72045 23.314 6.42238 23.0943 6.20261C22.8745 5.98284 22.5764 5.85938 22.2656 5.85938H15.2344C14.9236 5.85938 14.6255 5.98284 14.4057 6.20261C14.186 6.42238 14.0625 6.72045 14.0625 7.03125V11.7188C14.0625 12.0296 14.186 12.3276 14.4057 12.5474C14.6255 12.7672 14.9236 12.8906 15.2344 12.8906ZM16.4062 8.20312H21.0938V10.5469H16.4062V8.20312Z" fill="#0585E8"/>
<path d="M25.7812 5.85938H45.7031V8.20312H25.7812V5.85938Z" fill="#0585E8"/>
<path d="M25.7812 10.5469H51.5625V12.8906H25.7812V10.5469Z" fill="#0585E8"/>
<path d="M53.9062 10.5469H56.25V12.8906H53.9062V10.5469Z" fill="#0585E8"/>
<path d="M15.2344 24.6094H22.2656C22.5764 24.6094 22.8745 24.4859 23.0943 24.2661C23.314 24.0464 23.4375 23.7483 23.4375 23.4375V18.75C23.4375 18.4392 23.314 18.1411 23.0943 17.9214C22.8745 17.7016 22.5764 17.5781 22.2656 17.5781H15.2344C14.9236 17.5781 14.6255 17.7016 14.4057 17.9214C14.186 18.1411 14.0625 18.4392 14.0625 18.75V23.4375C14.0625 23.7483 14.186 24.0464 14.4057 24.2661C14.6255 24.4859 14.9236 24.6094 15.2344 24.6094ZM16.4062 19.9219H21.0938V22.2656H16.4062V19.9219Z" fill="#0585E8"/>
<path d="M25.7812 17.5781H45.7031V19.9219H25.7812V17.5781Z" fill="#0585E8"/>
<path d="M25.7812 22.2656H51.5625V24.6094H25.7812V22.2656Z" fill="#0585E8"/>
<path d="M53.9062 22.2656H56.25V24.6094H53.9062V22.2656Z" fill="#0585E8"/>
</svg>
