<svg width="75" height="75" viewBox="0 0 75 75" fill="none" xmlns="http://www.w3.org/2000/svg">
<path d="M70.0195 7.54688H60.7969V5.05078C60.7969 4.07812 60 3.29297 59.0391 3.29297H53.1797C52.207 3.29297 51.4219 4.07812 51.4219 5.05078V7.54688H42.1875V5.05078C42.1875 4.07812 41.4023 3.29297 40.4297 3.29297H34.5703C33.5977 3.29297 32.8125 4.07812 32.8125 5.05078V7.54688H23.5781V5.05078C23.5781 4.07812 22.793 3.29297 21.8203 3.29297H15.9609C15 3.29297 14.2031 4.07812 14.2031 5.05078V7.54688H4.98047C4.00781 7.54688 3.22266 8.33203 3.22266 9.30469V69.9492C3.22266 70.9219 4.00781 71.707 4.98047 71.707H70.0195C70.9922 71.707 71.7773 70.9219 71.7773 69.9492V9.30469C71.7773 8.33203 70.9922 7.54688 70.0195 7.54688ZM54.9375 6.80859H57.2812V12.668H54.9375V6.80859ZM36.3281 6.80859H38.6719V12.668H36.3281V6.80859ZM17.7188 6.80859H20.0625V12.668H17.7188V6.80859ZM68.2617 68.1914H6.73828V25.5586H68.2617V68.1914ZM68.2617 22.043H6.73828V11.0625H14.2031V14.4258C14.2031 15.3984 15 16.1836 15.9609 16.1836H21.8203C22.793 16.1836 23.5781 15.3984 23.5781 14.4258V11.0625H32.8125V14.4258C32.8125 15.3984 33.5977 16.1836 34.5703 16.1836H40.4297C41.4023 16.1836 42.1875 15.3984 42.1875 14.4258V11.0625H51.4219V14.4258C51.4219 15.3984 52.207 16.1836 53.1797 16.1836H59.0391C60 16.1836 60.7969 15.3984 60.7969 14.4258V11.0625H68.2617V22.043Z" fill="#0585E8"/>
<path d="M51.4687 47.1094V63.7852C51.4687 64.6172 50.7891 65.2969 49.957 65.2969H38.9766C38.1445 65.2969 37.4648 64.6172 37.4648 63.7852C37.4648 62.9531 38.1445 62.2734 38.9766 62.2734H48.4453V48.6211H38.9766C38.1445 48.6211 37.4648 47.9414 37.4648 47.1094V29.9766C37.4648 29.1445 38.1445 28.4648 38.9766 28.4648H49.957C50.7891 28.4648 51.4687 29.1445 51.4687 29.9766C51.4687 30.8203 50.7891 31.5 49.957 31.5H40.4883V45.5977H49.957C50.7891 45.5977 51.4687 46.2773 51.4687 47.1094Z" fill="#0585E8"/>
<path d="M35.2852 64.043C35.2852 64.875 34.6172 65.5547 33.7734 65.5547H27.3281C26.4961 65.5547 25.8164 64.875 25.8164 64.043C25.8164 63.1992 26.4961 62.5195 27.3281 62.5195H28.9453V31.2422H25.043C24.2109 31.2422 23.5312 30.5625 23.5312 29.7305C23.5312 28.8984 24.2109 28.2188 25.043 28.2188H30.457C31.3008 28.2188 31.9805 28.8984 31.9805 29.7305V62.5195H33.7734C34.6172 62.5195 35.2852 63.1992 35.2852 64.043Z" fill="#0585E8"/>
</svg>
