<svg width="100" height="101" viewBox="0 0 100 101" fill="none" xmlns="http://www.w3.org/2000/svg">
<path d="M91.1283 78.5538C97.7716 68.924 100.84 57.2749 99.8023 45.622C98.7647 33.9691 93.6865 23.0454 85.4463 14.7408C76.3495 5.53266 64.0134 0.245551 51.0717 0.00833927C38.1301 -0.228872 25.6085 4.60261 16.1804 13.4712C9.52016 14.1997 8.37544 13.9291 7.85512 15.5525C7.33479 17.176 8.22975 17.6339 10.4151 19.7152C-14.956 52.7872 9.02065 100.075 50.0641 100.075C56.6906 100.091 63.2534 98.7807 69.3657 96.2213C75.4781 93.662 81.0164 89.9052 85.6545 85.1724C92.2106 84.4439 93.3553 84.7145 93.9797 83.091C94.6041 81.4676 93.5426 80.9889 91.1283 78.5538ZM78.3907 67.502C76.7673 68.064 77.017 69.1463 76.3094 75.8273C69.9095 82.5129 61.2185 86.5315 51.9796 87.0771C42.7406 87.6227 33.6371 84.6548 26.4949 78.7688C19.3527 72.8828 14.7001 64.514 13.4703 55.3411C12.2406 46.1681 14.5246 36.8693 19.8643 29.31C21.3212 30.7669 21.9456 31.6411 23.3609 31.1416C24.7762 30.642 24.7137 29.5389 25.4422 23.0036C31.9435 17.0727 40.3627 13.6804 49.1598 13.4473C57.9569 13.2143 66.5439 16.156 73.3502 21.7343C80.1564 27.3127 84.727 35.155 86.2258 43.8266C87.7247 52.4982 86.0516 61.4196 81.5127 68.9589C80.4304 67.8767 79.7644 67.0233 78.3907 67.502ZM78.5988 85.9424C69.7535 93.0739 58.5727 96.662 47.2293 96.0094C35.886 95.3568 25.1904 90.5101 17.2213 82.4113C9.25223 74.3125 4.57889 63.54 4.10956 52.1876C3.64022 40.8352 7.40842 29.7138 14.6818 20.9848C15.027 20.6023 15.218 20.1055 15.218 19.5903C15.218 19.0751 15.027 18.5783 14.6818 18.1958C14.2447 17.7379 13.1833 17.9669 21.9872 17.0095L21.1339 24.6271C20.9233 24.4261 20.6728 24.2716 20.3988 24.1734C20.1247 24.0753 19.8331 24.0357 19.5428 24.0573C19.2526 24.0789 18.97 24.1611 18.7135 24.2987C18.4569 24.4363 18.2321 24.6261 18.0535 24.856C-3.21745 51.7049 16.222 90.9584 50.0641 90.9584C59.3426 90.9797 68.3484 87.8211 75.5809 82.0088L75.3936 83.7363C75.3642 84.18 75.4776 84.6214 75.7173 84.996C75.957 85.3705 76.3104 85.6584 76.7256 85.8176C77.3272 86.0281 77.9746 86.0713 78.5988 85.9424ZM79.8268 81.6133L80.6801 73.9541C81.1305 74.2701 81.6876 74.3949 82.2297 74.3013C82.7718 74.2077 83.2548 73.9033 83.5732 73.4546C89.0839 65.5374 91.614 55.9249 90.715 46.3206C89.8161 36.7163 85.5462 27.7403 78.662 20.9832C71.7777 14.2262 62.7237 10.1243 53.1043 9.40459C43.4849 8.68485 33.9213 11.3937 26.1082 17.0511L26.3371 14.9698C26.3857 14.6306 26.3498 14.2846 26.2326 13.9626C26.1153 13.6406 25.9204 13.3525 25.665 13.1239C25.4097 12.8954 25.1019 12.7334 24.7689 12.6524C24.4359 12.5714 24.0881 12.5738 23.7563 12.6595C32.5557 6.40903 43.2914 3.49203 54.044 4.43002C64.7966 5.36801 74.865 10.0998 82.4492 17.7795C90.1948 25.5878 94.8861 35.913 95.6726 46.8831C96.4592 57.8532 93.289 68.7421 86.7367 77.5756C86.4337 77.9761 86.2858 78.4728 86.3202 78.9739C86.3546 79.475 86.5691 79.9467 86.9241 80.3021C87.6733 80.9889 88.6099 80.6559 79.8268 81.6133Z" fill="#20BF55"/>
<path d="M70.2954 38.8214C69.6294 37.4061 70.0872 38.0513 58.9939 26.9788C56.642 24.6269 55.4348 25.1472 35.4959 25.1472C33.8399 25.1472 32.2517 25.8051 31.0808 26.976C29.9098 28.147 29.252 29.7352 29.252 31.3912V68.8547C29.252 70.5107 29.9098 72.0989 31.0808 73.2698C32.2517 74.4408 33.8399 75.0986 35.4959 75.0986H64.6342C66.2902 75.0986 67.8784 74.4408 69.0493 73.2698C70.2203 72.0989 70.8781 70.5107 70.8781 68.8547C70.8781 39.3209 71.1279 40.5697 70.2954 38.8214ZM63.7809 37.6351H58.3903V32.2445L63.7809 37.6351ZM64.6342 70.936H35.4959C34.9439 70.936 34.4145 70.7168 34.0242 70.3264C33.6339 69.9361 33.4146 69.4067 33.4146 68.8547V31.3912C33.4146 30.8392 33.6339 30.3098 34.0242 29.9194C34.4145 29.5291 34.9439 29.3098 35.4959 29.3098H54.2277V39.7164C54.2277 40.2684 54.4469 40.7978 54.8373 41.1881C55.2276 41.5784 55.757 41.7977 56.309 41.7977H66.7155V68.8547C66.7155 69.4067 66.4962 69.9361 66.1059 70.3264C65.7156 70.7168 65.1862 70.936 64.6342 70.936Z" fill="#20BF55"/>
<path d="M52.1453 43.8794H39.6575C39.1055 43.8794 38.5761 44.0987 38.1858 44.489C37.7955 44.8793 37.5762 45.4087 37.5762 45.9607C37.5762 46.5127 37.7955 47.0421 38.1858 47.4324C38.5761 47.8227 39.1055 48.042 39.6575 48.042H52.1453C52.6973 48.042 53.2267 47.8227 53.617 47.4324C54.0074 47.0421 54.2266 46.5127 54.2266 45.9607C54.2266 45.4087 54.0074 44.8793 53.617 44.489C53.2267 44.0987 52.6973 43.8794 52.1453 43.8794Z" fill="#20BF55"/>
<path d="M52.1453 52.2046H39.6575C39.1055 52.2046 38.5761 52.4239 38.1858 52.8142C37.7955 53.2045 37.5762 53.7339 37.5762 54.2859C37.5762 54.8379 37.7955 55.3673 38.1858 55.7576C38.5761 56.1479 39.1055 56.3672 39.6575 56.3672H52.1453C52.6973 56.3672 53.2267 56.1479 53.617 55.7576C54.0074 55.3673 54.2266 54.8379 54.2266 54.2859C54.2266 53.7339 54.0074 53.2045 53.617 52.8142C53.2267 52.4239 52.6973 52.2046 52.1453 52.2046Z" fill="#20BF55"/>
<path d="M52.1453 60.5298H39.6575C39.1055 60.5298 38.5761 60.7491 38.1858 61.1394C37.7955 61.5297 37.5762 62.0591 37.5762 62.6111C37.5762 63.1631 37.7955 63.6925 38.1858 64.0828C38.5761 64.4731 39.1055 64.6924 39.6575 64.6924H52.1453C52.6973 64.6924 53.2267 64.4731 53.617 64.0828C54.0074 63.6925 54.2266 63.1631 54.2266 62.6111C54.2266 62.0591 54.0074 61.5297 53.617 61.1394C53.2267 60.7491 52.6973 60.5298 52.1453 60.5298Z" fill="#20BF55"/>
</svg>
